<svg width="24" height="24" viewBox="0 0 24 24" fill="none" xmlns="http://www.w3.org/2000/svg">
<g clip-path="url(#clip0_166_8)">
<path d="M11.998 24C11.677 24 11.357 23.916 11.076 23.753L8.14 22.016C7.702 21.771 7.916 21.684 8.06 21.633C8.645 21.43 8.763 21.383 9.388 21.029C9.453 20.992 9.539 21.006 9.606 21.046L11.862 22.385C11.9039 22.4072 11.9506 22.4189 11.998 22.4189C12.0454 22.4189 12.0921 22.4072 12.134 22.385L20.929 17.309C20.97 17.2843 21.0039 17.2494 21.0274 17.2077C21.0509 17.166 21.0631 17.1189 21.063 17.071V6.921C21.0629 6.87228 21.0503 6.82441 21.0263 6.78201C21.0023 6.73962 20.9677 6.70413 20.926 6.679L12.135 1.607C12.0936 1.58388 12.0469 1.57174 11.9995 1.57174C11.9521 1.57174 11.9054 1.58388 11.864 1.607L3.075 6.68C3.03311 6.70487 2.99831 6.74011 2.97397 6.78231C2.94963 6.82452 2.93655 6.87228 2.936 6.921V17.071C2.9362 17.119 2.94918 17.1661 2.97361 17.2074C2.99804 17.2487 3.03304 17.2827 3.075 17.306L5.484 18.698C6.791 19.352 7.592 18.582 7.592 17.808V7.787C7.592 7.645 7.706 7.534 7.848 7.534H8.963C9.102 7.534 9.218 7.646 9.218 7.787V17.808C9.218 19.553 8.268 20.553 6.614 20.553C6.106 20.553 5.705 20.553 4.588 20.002L2.28 18.675C1.99946 18.5116 1.76668 18.2775 1.60489 17.9961C1.44311 17.7146 1.35798 17.3956 1.358 17.071V6.921C1.358 6.262 1.711 5.646 2.28 5.318L11.075 0.236C11.3583 0.0809878 11.6761 -0.000258446 11.999 -0.000258446C12.3219 -0.000258446 12.6397 0.0809878 12.923 0.236L21.717 5.318C22.287 5.647 22.641 6.262 22.641 6.921V17.071C22.6404 17.3958 22.5548 17.7147 22.3927 17.9961C22.2306 18.2775 21.9976 18.5116 21.717 18.675L12.923 23.753C12.643 23.916 12.324 24 11.998 24V24ZM19.099 13.993C19.099 12.093 17.815 11.587 15.112 11.23C12.381 10.869 12.103 10.682 12.103 10.043C12.103 9.515 12.338 8.81 14.361 8.81C16.168 8.81 16.834 9.199 17.108 10.417C17.1205 10.4733 17.1517 10.5236 17.1966 10.5598C17.2415 10.596 17.2974 10.6158 17.355 10.616H18.496C18.5309 10.6157 18.5653 10.6083 18.5972 10.5944C18.6292 10.5805 18.658 10.5603 18.682 10.535C18.7062 10.5088 18.7246 10.4778 18.7361 10.444C18.7477 10.4103 18.752 10.3745 18.749 10.339C18.572 8.241 17.178 7.263 14.361 7.263C11.853 7.263 10.357 8.321 10.357 10.096C10.357 12.021 11.845 12.553 14.252 12.791C17.132 13.073 17.355 13.494 17.355 14.06C17.355 15.043 16.566 15.462 14.713 15.462C12.386 15.462 11.874 14.878 11.702 13.72C11.6924 13.6599 11.6617 13.6051 11.6153 13.5657C11.5689 13.5263 11.5099 13.5047 11.449 13.505H10.312C10.2787 13.5047 10.2456 13.5111 10.2147 13.5237C10.1838 13.5363 10.1558 13.5549 10.1322 13.5785C10.1085 13.602 10.0898 13.63 10.0771 13.6608C10.0644 13.6916 10.0579 13.7247 10.058 13.758C10.058 15.24 10.864 17.006 14.713 17.006C17.501 17.007 19.099 15.91 19.099 13.993V13.993Z" fill="white"/>
</g>
<defs>
<clipPath id="clip0_166_8">
<rect width="24" height="24" fill="white"/>
</clipPath>
</defs>
</svg>
