<svg width="24" height="24" viewBox="0 0 24 24" fill="none" xmlns="http://www.w3.org/2000/svg">
<path d="M12 13.03C12.9858 13.03 13.785 12.2308 13.785 11.245C13.785 10.2592 12.9858 9.46 12 9.46C11.0142 9.46 10.215 10.2592 10.215 11.245C10.215 12.2308 11.0142 13.03 12 13.03Z" fill="white"/>
<path d="M7.002 14.794L6.607 14.693C3.673 13.952 1.99 12.692 1.99 11.241C1.99 9.789 3.674 8.53 6.607 7.789L7.002 7.689L7.113 8.08C7.40954 9.1037 7.78948 10.1014 8.249 11.063L8.334 11.241L8.249 11.419C7.789 12.382 7.408 13.38 7.113 14.404L7.002 14.794V14.794ZM6.425 8.699C4.196 9.327 2.827 10.285 2.827 11.241C2.827 12.195 4.195 13.154 6.425 13.781C6.698 12.913 7.028 12.064 7.41 11.241C7.02523 10.4166 6.69616 9.56739 6.425 8.699V8.699ZM16.997 14.794L16.887 14.402C16.5897 13.3781 16.2094 12.3801 15.75 11.418L15.665 11.241L15.75 11.062C16.21 10.101 16.589 9.102 16.887 8.078L16.997 7.688L17.392 7.788C20.327 8.529 22.009 9.788 22.009 11.241C22.009 12.693 20.326 13.952 17.392 14.693L16.997 14.794V14.794ZM16.587 11.241C16.987 12.107 17.32 12.959 17.574 13.781C19.804 13.154 21.173 12.195 21.173 11.241C21.173 10.285 19.805 9.328 17.574 8.699C17.3013 9.56712 16.9716 10.4163 16.587 11.241V11.241Z" fill="white"/>
<path d="M6.419 8.695L6.309 8.305C5.483 5.397 5.733 3.314 6.996 2.588C8.231 1.873 10.218 2.718 12.299 4.853L12.583 5.145L12.299 5.436C11.5599 6.20469 10.8843 7.03207 10.279 7.91L10.166 8.072L9.97 8.088C8.90558 8.1716 7.84975 8.34183 6.813 8.597L6.419 8.695V8.695ZM8.001 3.166C7.777 3.166 7.579 3.215 7.412 3.311C6.584 3.788 6.438 5.449 7.008 7.691C7.899 7.494 8.798 7.353 9.704 7.274C10.2285 6.53005 10.8007 5.8209 11.417 5.151C10.114 3.884 8.884 3.166 8.001 3.166V3.166ZM15.998 20.15C14.81 20.15 13.284 19.254 11.7 17.628L11.417 17.337L11.7 17.047C12.4392 16.2771 13.1151 15.4487 13.721 14.57L13.833 14.41L14.027 14.391C15.0918 14.3089 16.148 14.1393 17.185 13.884L17.58 13.784L17.691 14.175C18.513 17.081 18.264 19.167 17.003 19.893C16.6968 20.0665 16.3499 20.1553 15.998 20.15V20.15ZM12.583 17.33C13.885 18.597 15.116 19.316 15.998 19.316C16.223 19.316 16.421 19.266 16.587 19.171C17.416 18.693 17.563 17.029 16.991 14.787C16.101 14.985 15.201 15.127 14.293 15.206C13.7707 15.9511 13.1994 16.6607 12.583 17.33V17.33Z" fill="white"/>
<path d="M17.58 8.695L17.185 8.596C16.1481 8.34003 15.0918 8.16979 14.027 8.087L13.833 8.07L13.721 7.908C13.1159 7.02958 12.44 6.20216 11.7 5.434L11.417 5.143L11.7 4.853C13.78 2.719 15.766 1.874 17.003 2.588C18.265 3.315 18.516 5.398 17.691 8.305L17.58 8.695ZM14.293 7.274C15.247 7.359 16.151 7.502 16.991 7.691C17.562 5.449 17.416 3.788 16.587 3.31C15.763 2.833 14.212 3.563 12.583 5.151C13.199 5.821 13.771 6.529 14.293 7.274ZM8.001 20.15C7.64913 20.155 7.30226 20.0663 6.996 19.893C5.733 19.167 5.483 17.082 6.308 14.175L6.416 13.784L6.811 13.884C7.775 14.127 8.837 14.298 9.969 14.391L10.163 14.41L10.276 14.57C10.88 15.448 11.556 16.277 12.296 17.047L12.58 17.337L12.296 17.628C10.713 19.255 9.187 20.15 8.001 20.15V20.15ZM7.008 14.788C6.438 17.03 6.584 18.694 7.412 19.172C8.237 19.642 9.783 18.917 11.417 17.33C10.801 16.6599 10.2288 15.9508 9.704 15.207C8.79709 15.1268 7.89647 14.9868 7.008 14.788V14.788Z" fill="white"/>
<path d="M12 15.313C11.313 15.313 10.608 15.284 9.9 15.225L9.704 15.208L9.591 15.046C9.19176 14.4719 8.81611 13.8817 8.465 13.277C8.11649 12.6706 7.79256 12.0505 7.494 11.418L7.41 11.241L7.494 11.062C7.793 10.43 8.116 9.81 8.465 9.204C8.812 8.608 9.191 8.012 9.591 7.434L9.704 7.274L9.9 7.256C11.2969 7.139 12.7011 7.139 14.098 7.256L14.292 7.275L14.405 7.435C15.2048 8.58375 15.9072 9.7973 16.505 11.063L16.588 11.242L16.505 11.419C15.9089 12.6856 15.2064 13.8993 14.405 15.047L14.292 15.209L14.098 15.226C13.392 15.283 12.686 15.313 12 15.313V15.313ZM10.166 14.409C11.401 14.502 12.599 14.502 13.833 14.409C14.5219 13.4002 15.1343 12.3412 15.665 11.241C15.1361 10.1398 14.5237 9.08066 13.833 8.073C12.6125 7.979 11.3865 7.979 10.166 8.073C9.47474 9.0803 8.86226 10.1394 8.334 11.241C8.86588 12.3406 9.47821 13.3995 10.166 14.409V14.409Z" fill="white"/>
</svg>
